<svg version="1.0" xmlns="http://www.w3.org/2000/svg"
 width="204px" height="204px" viewBox="0 0 204 204">
<g transform="translate(0,204) scale(0.1,-0.1)"
fill="#FFFFFF" stroke="blue" stroke-width="20">
<path d="M160 1070 l0 -910 195 0 195 0 2 550 3 551 138 -206 137 -205 0 -345
0 -345 195 0 195 0 0 341 0 341 140 211 140 212 0 -552 0 -553 195 0 195 0 0
910 0 910 -192 0 -193 -1 -235 -354 c-129 -195 -239 -353 -245 -351 -5 1 -115
161 -244 354 l-234 352 -194 0 -193 0 0 -910z m610 511 c135 -203 250 -370
255 -370 6 -1 120 165 255 369 l245 369 168 1 167 0 0 -880 0 -880 -165 0
-165 0 0 570 c0 473 -2 570 -14 570 -7 0 -84 -106 -170 -236 l-156 -235 0
-335 0 -334 -165 0 -165 0 0 337 0 337 -155 233 c-86 128 -163 233 -170 233
-13 0 -15 -79 -15 -570 l0 -570 -165 0 -165 0 0 880 0 880 168 0 168 0 244
-369z"/>
</g>
</svg>
